<svg id="Layer_1" data-name="Layer 1" xmlns="http://www.w3.org/2000/svg" viewBox="0 0 7.61 131.96"><defs><style>.cls-1{fill:#280d47;}</style></defs><path class="cls-1" d="M7.61,3.81A3.81,3.81,0,1,1,3.81,0,3.8,3.8,0,0,1,7.61,3.81Z"/><path class="cls-1" d="M7.61,45.26a3.81,3.81,0,1,1-3.8-3.81A3.8,3.8,0,0,1,7.61,45.26Z"/><path class="cls-1" d="M7.61,86.71a3.81,3.81,0,1,1-3.8-3.81A3.8,3.8,0,0,1,7.61,86.71Z"/><path class="cls-1" d="M7.61,128.16a3.81,3.81,0,1,1-3.8-3.81A3.8,3.8,0,0,1,7.61,128.16Z"/><rect class="cls-1" x="3" y="3.81" width="1.6" height="123.71"/></svg>