<svg id="Layer_1" data-name="Layer 1" xmlns="http://www.w3.org/2000/svg" viewBox="0 0 6.15 6"><defs><style>.cls-1{fill:#fff;}</style></defs><path id="github" class="cls-1" d="M2.06,4.83H2C2.06,4.83,2.06,4.8,2.06,4.83Zm-.39,0,.06.06c.06.06.07,0,.07,0l-.05-.06A.06.06,0,0,0,1.67,4.83Zm.55,0a.09.09,0,0,0-.06.07.06.06,0,0,0,.08,0s.06,0,0-.06,0,0-.07,0ZM3,0A3,3,0,0,0,0,3,3.13,3.13,0,0,0,2.1,6c.16,0,.22-.07.22-.16V5.08s-.86.19-1-.37c0,0-.14-.36-.34-.45,0,0-.29-.2,0-.19a.68.68,0,0,1,.48.32.66.66,0,0,0,.88.28l0,0a.75.75,0,0,1,.2-.42c-.69-.08-1.39-.18-1.39-1.37a1,1,0,0,1,.29-.73,1.21,1.21,0,0,1,0-.84c.26-.09.86.33.86.33a3.17,3.17,0,0,1,1.56,0s.59-.42.85-.33a1.11,1.11,0,0,1,0,.84,1,1,0,0,1,.32.73c0,1.2-.73,1.29-1.42,1.37a.75.75,0,0,1,.21.58v1c0,.08.05.18.21.15a3.07,3.07,0,0,0,2.1-3,3,3,0,0,0-3-3ZM1.21,4.28v.06a0,0,0,0,0,.07,0V4.27C1.28,4.2,1.22,4.26,1.21,4.28Zm-.14-.1v.05h0A0,0,0,0,0,1.07,4.18Zm.4.44V4.7c0,.08.06,0,.08,0s0,0,0-.08a.06.06,0,0,0-.07,0Zm-.14-.18v.07c0,.07.06,0,.07,0a.06.06,0,0,0,0-.08H1.33Z"/></svg>