<svg id="Layer_1" data-name="Layer 1" xmlns="http://www.w3.org/2000/svg" viewBox="0 0 7.16 4.48"><defs><style>.cls-1{fill:#fff;}</style></defs><path id="behance" class="cls-1" d="M2.88,2a1,1,0,0,0,.6-.92C3.48.21,2.83,0,2.07,0H0V4.4H2.13c.8,0,1.55-.39,1.55-1.28A1.05,1.05,0,0,0,2.88,2ZM1,.75h.9c.35,0,.67.1.67.5s-.25.53-.59.53H1v-1Zm1,2.9H1V2.44H2c.43,0,.69.18.69.63s-.32.58-.71.58Zm4.45-3H4.67V.22H6.45Zm.7,2.19A1.57,1.57,0,0,0,5.74,1.13H5.6A1.6,1.6,0,0,0,4,2.72v.09A1.55,1.55,0,0,0,5.42,4.48H5.6A1.42,1.42,0,0,0,7.09,3.41H6.32a.76.76,0,0,1-.7.41.71.71,0,0,1-.78-.65.43.43,0,0,1,0-.16h2.3V2.85ZM4.84,2.45a.69.69,0,0,1,.7-.68h0a.66.66,0,0,1,.7.62v.06Z"/></svg>